<svg width="48" height="48" viewBox="0 0 48 48" fill="none" xmlns="http://www.w3.org/2000/svg">
<g clip-path="url(#clip0_876_2879)">
<g filter="url(#filter0_d_876_2879)">
<path d="M24 3C18.4512 3.06694 13.1486 5.30093 9.22478 9.22478C5.30093 13.1486 3.06694 18.4512 3 24C3.06694 29.5488 5.30093 34.8514 9.22478 38.7752C13.1486 42.6991 18.4512 44.9331 24 45C29.5488 44.9331 34.8514 42.6991 38.7752 38.7752C42.6991 34.8514 44.9331 29.5488 45 24C44.9331 18.4512 42.6991 13.1486 38.7752 9.22478C34.8514 5.30093 29.5488 3.06694 24 3ZM36 25.5H25.5V36H22.5V25.5H12V22.5H22.5V12H25.5V22.5H36V25.5Z" fill="#2A4878"/>
</g>
</g>
<defs>
<filter id="filter0_d_876_2879" x="-29" y="-25" width="106" height="106" filterUnits="userSpaceOnUse" color-interpolation-filters="sRGB">
<feFlood flood-opacity="0" result="BackgroundImageFix"/>
<feColorMatrix in="SourceAlpha" type="matrix" values="0 0 0 0 0 0 0 0 0 0 0 0 0 0 0 0 0 0 127 0" result="hardAlpha"/>
<feOffset dy="4"/>
<feGaussianBlur stdDeviation="16"/>
<feComposite in2="hardAlpha" operator="out"/>
<feColorMatrix type="matrix" values="0 0 0 0 0 0 0 0 0 0 0 0 0 0 0 0 0 0 0.1 0"/>
<feBlend mode="normal" in2="BackgroundImageFix" result="effect1_dropShadow_876_2879"/>
<feBlend mode="normal" in="SourceGraphic" in2="effect1_dropShadow_876_2879" result="shape"/>
</filter>
<clipPath id="clip0_876_2879">
<rect width="48" height="48" fill="white"/>
</clipPath>
</defs>
</svg>
