<svg width="24" height="24" viewBox="0 0 24 24" fill="none" xmlns="http://www.w3.org/2000/svg">
<path d="M12.9397 12.0002L17.7997 7.14017C17.9089 7.01264 17.9659 6.84859 17.9595 6.68081C17.953 6.51302 17.8834 6.35386 17.7647 6.23513C17.646 6.1164 17.4868 6.04685 17.319 6.04037C17.1512 6.03389 16.9872 6.09096 16.8597 6.20017L11.9997 11.0602L7.13966 6.19351C7.01212 6.08429 6.84807 6.02722 6.68029 6.0337C6.5125 6.04018 6.35334 6.10974 6.23461 6.22847C6.11589 6.3472 6.04633 6.50635 6.03985 6.67414C6.03337 6.84192 6.09044 7.00597 6.19966 7.13351L11.0597 12.0002L6.19299 16.8602C6.1232 16.9199 6.06652 16.9935 6.02651 17.0762C5.98649 17.1589 5.964 17.249 5.96046 17.3408C5.95691 17.4326 5.97238 17.5242 6.0059 17.6097C6.03941 17.6953 6.09025 17.773 6.15522 17.8379C6.22019 17.9029 6.29789 17.9537 6.38344 17.9873C6.46899 18.0208 6.56055 18.0363 6.65236 18.0327C6.74417 18.0292 6.83426 18.0067 6.91697 17.9667C6.99968 17.9266 7.07323 17.87 7.13299 17.8002L11.9997 12.9402L16.8597 17.8002C16.9872 17.9094 17.1512 17.9665 17.319 17.96C17.4868 17.9535 17.646 17.8839 17.7647 17.7652C17.8834 17.6465 17.953 17.4873 17.9595 17.3195C17.9659 17.1518 17.9089 16.9877 17.7997 16.8602L12.9397 12.0002Z" fill="#C2C2C2"/>
</svg>
