<svg width="64" height="64" viewBox="0 0 64 64" fill="none" xmlns="http://www.w3.org/2000/svg">
<path d="M54 16.25H45.5L43.475 10.575C43.3351 10.1867 43.0787 9.85101 42.7409 9.61386C42.4031 9.37671 42.0003 9.24964 41.5875 9.25H22.4125C21.5688 9.25 20.8125 9.78125 20.5312 10.575L18.5 16.25H10C7.2375 16.25 5 18.4875 5 21.25V49.75C5 52.5125 7.2375 54.75 10 54.75H54C56.7625 54.75 59 52.5125 59 49.75V21.25C59 18.4875 56.7625 16.25 54 16.25ZM32 44.75C26.475 44.75 22 40.275 22 34.75C22 29.225 26.475 24.75 32 24.75C37.525 24.75 42 29.225 42 34.75C42 40.275 37.525 44.75 32 44.75ZM26 34.75C26 36.3413 26.6321 37.8674 27.7574 38.9926C28.8826 40.1179 30.4087 40.75 32 40.75C33.5913 40.75 35.1174 40.1179 36.2426 38.9926C37.3679 37.8674 38 36.3413 38 34.75C38 33.1587 37.3679 31.6326 36.2426 30.5074C35.1174 29.3821 33.5913 28.75 32 28.75C30.4087 28.75 28.8826 29.3821 27.7574 30.5074C26.6321 31.6326 26 33.1587 26 34.75Z" fill="#2A4878"/>
</svg>
