<svg width="56" height="62" viewBox="0 0 56 62" fill="none" xmlns="http://www.w3.org/2000/svg">
<path d="M34.5724 1.30562C34.6874 1.04184 34.8524 0.803719 35.0578 0.604859C35.2632 0.405998 35.5051 0.25029 35.7696 0.146629C36.0341 0.0429675 36.3161 -0.00661656 36.5995 0.000707756C36.8828 0.00803207 37.162 0.0721214 37.421 0.189316C37.9216 0.41785 45.9581 4.31611 51.3488 13.5058C54.0722 18.1644 55.2203 22.9328 55.6908 26.5718C55.9595 28.6592 56.0533 30.766 55.9713 32.8696V32.9839V32.9663C55.9713 33.5491 55.7439 34.108 55.3392 34.5201C54.9345 34.9322 54.3856 35.1638 53.8133 35.1638C53.2409 35.1638 52.692 34.9322 52.2873 34.5201C51.8826 34.108 51.6553 33.5491 51.6553 32.9663V32.7466C51.72 31.2391 52.0437 23.2712 47.6413 15.7604C44.9941 11.287 41.3024 7.54903 36.8944 4.87865C36.1564 4.43916 35.7032 4.21942 35.6687 4.20623C35.4096 4.0891 35.1758 3.92115 34.9805 3.71198C34.7852 3.50281 34.6323 3.25651 34.5305 2.98716C34.4287 2.7178 34.38 2.43066 34.3872 2.14214C34.3944 1.85362 34.4573 1.56936 34.5724 1.30562ZM34.7968 11.9105C35.1323 11.4385 35.6381 11.1215 36.203 11.0292C36.768 10.9369 37.3458 11.0769 37.8094 11.4182C37.7965 11.4094 38.828 12.0687 40.0538 13.2201C41.2925 14.3716 42.816 16.09 44.0331 18.3929C45.3589 20.9183 46.143 23.7016 46.3336 26.5586C46.3509 26.8223 46.3552 27.0288 46.3595 27.1914V27.4683C46.3595 28.0511 46.1321 28.61 45.7274 29.0221C45.3227 29.4342 44.7738 29.6658 44.2015 29.6658C43.6291 29.6658 43.0802 29.4342 42.6755 29.0221C42.2708 28.61 42.0435 28.0511 42.0435 27.4683V27.4551C41.9962 24.9725 41.3557 22.5389 40.1773 20.3649C38.9989 18.1909 37.318 16.342 35.2802 14.9781C34.8167 14.6365 34.5055 14.1214 34.4148 13.5462C34.3242 12.9709 34.4616 12.3826 34.7968 11.9105ZM2.17625 42.6614C-0.0256638 38.6297 -0.582968 33.8782 0.624553 29.4318C1.83207 24.9855 4.70764 21.2006 8.63098 18.8937C12.5543 16.5868 17.211 15.9427 21.5965 17.1004C25.982 18.258 29.7449 21.1247 32.0734 25.0819L35.6126 31.3226L43.8389 37.4183C44.1294 37.6337 44.3624 37.9196 44.5169 38.2499C44.6714 38.5802 44.7424 38.9446 44.7236 39.31C44.7047 39.6754 44.5966 40.0302 44.4089 40.3422C44.2213 40.6543 43.9601 40.9136 43.649 41.0968L32.7295 47.5134L32.7467 47.5265L20.9294 54.4705V54.4573L10.0099 60.8738C9.69851 61.0576 9.34696 61.1592 8.98722 61.1693C8.62747 61.1794 8.27095 61.0978 7.9501 60.9318C7.62924 60.7659 7.35425 60.5208 7.15014 60.219C6.94603 59.9172 6.8193 59.5682 6.78146 59.2037L5.7154 48.9065L2.17625 42.6614ZM35.4658 51.0029L22.5263 58.606C23.6529 60.0476 25.2501 61.0295 27.0276 61.3732C28.8051 61.7168 30.6446 61.3994 32.2116 60.4786C33.7787 59.5579 34.9691 58.0949 35.5663 56.3559C36.1635 54.6169 36.1278 52.7174 35.4658 51.0029Z" fill="white"/>
</svg>
