<svg width="22" height="21" viewBox="0 0 22 21" fill="none" xmlns="http://www.w3.org/2000/svg">
<path d="M10.8 0.572915L10.8005 0.57339L20.4543 10.2201C20.8451 10.6109 20.8451 11.2441 20.4559 11.6348L20.4551 11.6356C20.2689 11.8233 20.0152 11.9283 19.7484 11.9283H18.7313H18.2313V12.4283V19.3119C18.2313 19.4506 18.12 19.5619 17.9813 19.5619H12.2492V14.8119V14.3119H11.7492H9.12422H8.62422V14.8119V19.5619H3.26719C3.12849 19.5619 3.01719 19.4506 3.01719 19.3119V12.4283V11.9283H2.51719H1.5C0.948799 11.9283 0.5 11.4795 0.5 10.9283C0.5 10.6634 0.60605 10.4083 0.79405 10.2203C0.794078 10.2202 0.794107 10.2202 0.794135 10.2202C0.79415 10.2202 0.794164 10.2201 0.794178 10.2201L10.448 0.57339L10.4484 0.572915C10.4715 0.549801 10.4989 0.531463 10.5291 0.518952C10.5592 0.50644 10.5916 0.5 10.6242 0.5C10.6569 0.5 10.6892 0.50644 10.7194 0.518952C10.7495 0.531463 10.7769 0.5498 10.8 0.572915Z" stroke="#2A4878"/>
</svg>
