<svg width="23" height="22" viewBox="0 0 23 22" fill="none" xmlns="http://www.w3.org/2000/svg">
<path d="M21.6838 10.8359L12.0299 1.18907C11.9604 1.11942 11.8778 1.06417 11.7869 1.02647C11.696 0.988766 11.5986 0.96936 11.5002 0.96936C11.4018 0.96936 11.3044 0.988766 11.2135 1.02647C11.1226 1.06417 11.04 1.11942 10.9705 1.18907L1.3166 10.8359C1.03535 11.1172 0.875977 11.4992 0.875977 11.8977C0.875977 12.725 1.54863 13.3977 2.37598 13.3977H3.39316V20.2813C3.39316 20.6961 3.72832 21.0313 4.14316 21.0313H10.0002V15.7813H12.6252V21.0313H18.8572C19.2721 21.0313 19.6072 20.6961 19.6072 20.2813V13.3977H20.6244C21.0229 13.3977 21.4049 13.2406 21.6861 12.957C22.2697 12.3711 22.2697 11.4219 21.6838 10.8359V10.8359Z" fill="#2A4878"/>
</svg>
