<svg width="20" height="18" viewBox="0 0 20 18" fill="none" xmlns="http://www.w3.org/2000/svg">
<path d="M10 13C9.20435 13 8.44129 12.6839 7.87868 12.1213C7.31607 11.5587 7 10.7956 7 10C7 8.88 7.61 7.9 8.5 7.39L18.21 1.77L12.68 11.35C12.18 12.33 11.17 13 10 13ZM10 0C11.81 0 13.5 0.5 14.97 1.32L12.87 2.53C12 2.19 11 2 10 2C7.87827 2 5.84343 2.84285 4.34314 4.34315C2.84285 5.84344 2 7.87827 2 10C2 12.21 2.89 14.21 4.34 15.65H4.35C4.74 16.04 4.74 16.67 4.35 17.06C3.96 17.45 3.32 17.45 2.93 17.07C1.99997 16.1426 1.26236 15.0407 0.759533 13.8274C0.256709 12.6141 -0.00141337 11.3134 -1.8717e-06 10C-1.8717e-06 7.34784 1.05357 4.8043 2.92893 2.92893C4.80429 1.05357 7.34783 0 10 0ZM20 10C20 12.76 18.88 15.26 17.07 17.07C16.68 17.45 16.05 17.45 15.66 17.06C15.5673 16.9675 15.4937 16.8576 15.4436 16.7366C15.3934 16.6157 15.3676 16.486 15.3676 16.355C15.3676 16.224 15.3934 16.0943 15.4436 15.9734C15.4937 15.8524 15.5673 15.7425 15.66 15.65C16.4037 14.9093 16.9934 14.0287 17.395 13.059C17.7966 12.0893 18.0022 11.0496 18 10C18 9 17.81 8 17.46 7.1L18.67 5C19.5 6.5 20 8.18 20 10Z" fill="white"/>
</svg>
