<svg width="22" height="24" viewBox="0 0 22 24" fill="none" xmlns="http://www.w3.org/2000/svg">
<path d="M11 24C11.7956 24 12.5587 23.6839 13.1213 23.1213C13.6839 22.5587 14 21.7956 14 21H8C8 21.7956 8.31607 22.5587 8.87868 23.1213C9.44129 23.6839 10.2044 24 11 24ZM11 2.87697L9.8045 3.11847C8.44844 3.39477 7.2295 4.13112 6.35398 5.2029C5.47846 6.27468 5.00015 7.61605 5 8.99997C5 9.94197 4.799 12.2955 4.3115 14.613C4.0715 15.7635 3.7475 16.962 3.317 18H18.683C18.2525 16.962 17.93 15.765 17.6885 14.613C17.201 12.2955 17 9.94197 17 8.99997C16.9995 7.61631 16.521 6.27529 15.6455 5.20382C14.7701 4.13235 13.5513 3.39622 12.1955 3.11997L11 2.87547V2.87697ZM20.33 18C20.6645 18.6705 21.0515 19.2015 21.5 19.5H0.5C0.9485 19.2015 1.3355 18.6705 1.67 18C3.02 15.3 3.5 10.32 3.5 8.99997C3.5 5.36997 6.08 2.33997 9.5075 1.64847C9.48656 1.4399 9.50958 1.22926 9.57505 1.03013C9.64052 0.831 9.74701 0.647804 9.88763 0.492357C10.0283 0.336909 10.1999 0.212661 10.3915 0.127626C10.5831 0.0425914 10.7904 -0.00134277 11 -0.00134277C11.2096 -0.00134277 11.4169 0.0425914 11.6085 0.127626C11.8001 0.212661 11.9717 0.336909 12.1124 0.492357C12.253 0.647804 12.3595 0.831 12.4249 1.03013C12.4904 1.22926 12.5134 1.4399 12.4925 1.64847C14.1879 1.99332 15.7121 2.91351 16.8069 4.25322C17.9016 5.59293 18.4998 7.26983 18.5 8.99997C18.5 10.32 18.98 15.3 20.33 18Z" fill="#2A4878"/>
</svg>
