<svg width="24" height="24" viewBox="0 0 24 24" fill="none" xmlns="http://www.w3.org/2000/svg">
<path d="M20.6666 5.33333H14.6666V22H22V6.66666C22 6.31304 21.8595 5.9739 21.6094 5.72385C21.3594 5.4738 21.0202 5.33333 20.6666 5.33333ZM17.3333 16.6667H16V15.3333H17.3333V16.6667ZM17.3333 13.3333H16V12H17.3333V13.3333ZM17.3333 9.99999H16V8.66666H17.3333V9.99999ZM20 16.6667H18.6666V15.3333H20V16.6667ZM20 13.3333H18.6666V12H20V13.3333ZM20 9.99999H18.6666V8.66666H20V9.99999Z" fill="#444444"/>
<path d="M11.92 2H4.07996C3.70512 2 3.34563 2.1489 3.08058 2.41396C2.81553 2.67901 2.66663 3.03849 2.66663 3.41333V22H5.99996V20H9.99996V22H13.3333V3.41333C13.3333 3.03849 13.1844 2.67901 12.9193 2.41396C12.6543 2.1489 12.2948 2 11.92 2ZM5.99996 16.6667H4.66663V15.3333H5.99996V16.6667ZM5.99996 13.3333H4.66663V12H5.99996V13.3333ZM5.99996 10H4.66663V8.66667H5.99996V10ZM5.99996 6.66667H4.66663V5.33333H5.99996V6.66667ZM8.66663 16.6667H7.33329V15.3333H8.66663V16.6667ZM8.66663 13.3333H7.33329V12H8.66663V13.3333ZM8.66663 10H7.33329V8.66667H8.66663V10ZM8.66663 6.66667H7.33329V5.33333H8.66663V6.66667ZM11.3333 16.6667H9.99996V15.3333H11.3333V16.6667ZM11.3333 13.3333H9.99996V12H11.3333V13.3333ZM11.3333 10H9.99996V8.66667H11.3333V10ZM11.3333 6.66667H9.99996V5.33333H11.3333V6.66667Z" fill="#444444"/>
</svg>
