<svg width="71" height="71" viewBox="0 0 71 71" fill="none" xmlns="http://www.w3.org/2000/svg">
<path fill-rule="evenodd" clip-rule="evenodd" d="M45.9477 42.6665L58.3211 55.0402C58.756 55.4754 59.0002 56.0656 59 56.6809C58.9998 57.2962 58.7552 57.8862 58.32 58.3211C57.8847 58.756 57.2946 59.0002 56.6793 59C56.064 58.9998 55.4741 58.7552 55.0392 58.3199L42.6657 45.9462C38.9668 48.8112 34.3155 50.1594 29.6578 49.7166C25.0002 49.2738 20.6862 47.0732 17.5934 43.5626C14.5006 40.0519 12.8614 35.4948 13.0092 30.8184C13.157 26.142 15.0807 21.6975 18.389 18.3891C21.6973 15.0808 26.1416 13.157 30.8179 13.0092C35.4942 12.8614 40.0512 14.5007 43.5618 17.5935C47.0724 20.6864 49.2729 25.0005 49.7157 29.6582C50.1585 34.316 48.8103 38.9675 45.9454 42.6665H45.9477ZM31.4009 45.1987C35.0607 45.1987 38.5706 43.7448 41.1585 41.1569C43.7464 38.5689 45.2002 35.0589 45.2002 31.399C45.2002 27.7391 43.7464 24.2291 41.1585 21.6412C38.5706 19.0532 35.0607 17.5993 31.4009 17.5993C27.741 17.5993 24.2311 19.0532 21.6432 21.6412C19.0554 24.2291 17.6015 27.7391 17.6015 31.399C17.6015 35.0589 19.0554 38.5689 21.6432 41.1569C24.2311 43.7448 27.741 45.1987 31.4009 45.1987V45.1987Z" fill="white"/>
</svg>
