<svg width="24" height="25" viewBox="0 0 24 25" fill="none" xmlns="http://www.w3.org/2000/svg">
<g clip-path="url(#clip0_44_150)">
<path d="M1.5 3.5C1.5 1.84297 2.84297 0.5 4.5 0.5H12C13.6547 0.5 15 1.84297 15 3.5V12.5H15.375C17.6531 12.5 19.5 14.3469 19.5 16.625V18.125C19.5 18.7484 20.0016 19.25 20.625 19.25C21.2484 19.25 21.75 18.7484 21.75 18.125V10.8641C20.4562 10.5734 19.5 9.39688 19.5 8V5L18 3.5C17.5875 3.08562 17.5875 2.41438 18 2C18.4125 1.58562 19.0875 1.58562 19.5 2L23.1234 5.62344C23.6859 6.18594 24 6.94531 24 7.74219V18.125C24 19.9906 22.4906 21.5 20.625 21.5C18.7594 21.5 17.25 19.9906 17.25 18.125V16.625C17.25 15.5891 16.4109 14.7078 15.375 14.7078H15V21.5C15.8297 21.5 16.5 22.1703 16.5 23C16.5 23.8297 15.8297 24.5 15 24.5H1.5C0.671719 24.5 0 23.8297 0 23C0 22.1703 0.671719 21.5 1.5 21.5V3.5ZM4.5 8.75C4.5 9.1625 4.8375 9.5 5.25 9.5H11.25C11.6625 9.5 12 9.1625 12 8.75V4.25C12 3.83562 11.6625 3.5 11.25 3.5H5.25C4.8375 3.5 4.5 3.83562 4.5 4.25V8.75Z" fill="#444444"/>
</g>
<defs>
<clipPath id="clip0_44_150">
<rect width="24" height="24" fill="white" transform="translate(0 0.5)"/>
</clipPath>
</defs>
</svg>
