<svg width="24" height="24" viewBox="0 0 24 24" fill="none" xmlns="http://www.w3.org/2000/svg">
<path fill-rule="evenodd" clip-rule="evenodd" d="M8.04545 2C7.93019 2.00001 7.8161 2.02309 7.7099 2.06789C7.6037 2.11268 7.50754 2.17828 7.42709 2.26082L2.24527 7.57736C2.08804 7.73863 2.00002 7.95495 2 8.18018V14.9545C2.00005 15.1836 2.09107 15.4032 2.25305 15.5651L7.43486 20.747C7.59679 20.9089 7.81642 21 8.04545 21H14.9545C15.1836 21 15.4032 20.9089 15.5651 20.747L20.747 15.5651C20.9089 15.4032 21 15.1836 21 14.9545V8.18018C21 7.95495 20.912 7.73863 20.7547 7.57736L15.5729 2.26082C15.4925 2.17828 15.3963 2.11268 15.2901 2.06789C15.1839 2.02309 15.0698 2.00001 14.9545 2H8.04545ZM8.04545 10.6364C7.8164 10.6364 7.59674 10.7274 7.43477 10.8893C7.27281 11.0513 7.18182 11.2709 7.18182 11.5C7.18182 11.7291 7.27281 11.9487 7.43477 12.1107C7.59674 12.2726 7.8164 12.3636 8.04545 12.3636H14.9545C15.1836 12.3636 15.4033 12.2726 15.5652 12.1107C15.7272 11.9487 15.8182 11.7291 15.8182 11.5C15.8182 11.2709 15.7272 11.0513 15.5652 10.8893C15.4033 10.7274 15.1836 10.6364 14.9545 10.6364H8.04545Z" fill="#444444"/>
</svg>
