<svg width="18" height="22" viewBox="0 0 18 22" fill="none" xmlns="http://www.w3.org/2000/svg">
<path d="M9 0.5C6.81276 0.50258 4.71584 1.3726 3.16922 2.91922C1.6226 4.46584 0.752582 6.56276 0.750001 8.75C0.747381 10.5374 1.33124 12.2763 2.412 13.7C2.412 13.7 2.637 13.9963 2.67375 14.039L9 21.5L15.3293 14.0353C15.3623 13.9955 15.588 13.7 15.588 13.7L15.5888 13.6978C16.669 12.2747 17.2526 10.5366 17.25 8.75C17.2474 6.56276 16.3774 4.46584 14.8308 2.91922C13.2842 1.3726 11.1872 0.50258 9 0.5ZM9 11.75C8.40666 11.75 7.82664 11.5741 7.33329 11.2444C6.83994 10.9148 6.45543 10.4462 6.22836 9.89805C6.0013 9.34987 5.94189 8.74667 6.05765 8.16473C6.1734 7.58279 6.45912 7.04824 6.87868 6.62868C7.29824 6.20912 7.83279 5.9234 8.41473 5.80764C8.99667 5.69189 9.59987 5.7513 10.1481 5.97836C10.6962 6.20542 11.1648 6.58994 11.4944 7.08329C11.8241 7.57664 12 8.15666 12 8.75C11.999 9.54535 11.6826 10.3078 11.1202 10.8702C10.5578 11.4326 9.79535 11.749 9 11.75Z" fill="white"/>
</svg>
