<svg width="232" height="81" viewBox="0 0 232 81" fill="none" xmlns="http://www.w3.org/2000/svg">
<g clip-path="url(#clip0_235_1161)">
<path opacity="0.89" d="M99.3495 21.5029L71.9591 0L59.6676 12.1692L44.4919 1.56822C28.053 16.2099 12.245 31.0594 5.56852 40.6347C-12.2926 70.6913 16.2334 85.2411 42.8365 79.0857C53.7798 76.3501 61.9005 70.285 71.2761 60.6976C58.2605 68.3565 51.4002 73.4903 42.4936 73.4647C-4.08552 73.3297 13.9375 18.2963 73.2483 23.5907L66.9517 17.9913C67.7952 15.4406 78.4367 16.5513 99.3495 21.5029Z" fill="white"/>
</g>
<path d="M87.7346 31.1791V35.6869C87.5575 35.9004 87.2841 36.1322 86.9143 36.3822C86.5445 36.627 86.068 36.8379 85.4846 37.015C84.9013 37.1921 84.1956 37.2806 83.3674 37.2806C82.6331 37.2806 81.9638 37.1608 81.3596 36.9213C80.7555 36.6765 80.2346 36.3197 79.7971 35.851C79.3648 35.3822 79.0315 34.8093 78.7971 34.1322C78.5627 33.4499 78.4456 32.6713 78.4456 31.7963V31.0853C78.4456 30.2103 78.5575 29.4317 78.7815 28.7494C79.0107 28.0671 79.3362 27.4916 79.7581 27.0228C80.1799 26.5541 80.6825 26.1973 81.2659 25.9525C81.8492 25.7077 82.4976 25.5853 83.2112 25.5853C84.2008 25.5853 85.0133 25.7468 85.6487 26.0697C86.2841 26.3874 86.7685 26.8301 87.1018 27.3978C87.4403 27.9603 87.6487 28.6062 87.7268 29.3353H85.4534C85.3961 28.9499 85.2867 28.614 85.1252 28.3275C84.9638 28.0411 84.732 27.8171 84.4299 27.6556C84.1331 27.4942 83.7476 27.4135 83.2737 27.4135C82.8831 27.4135 82.5341 27.4942 82.2268 27.6556C81.9247 27.8119 81.6695 28.0437 81.4612 28.351C81.2528 28.6582 81.094 29.0385 80.9846 29.4916C80.8752 29.9447 80.8206 30.4707 80.8206 31.0697V31.7963C80.8206 32.39 80.8778 32.9161 80.9924 33.3744C81.107 33.8275 81.2763 34.2103 81.5002 34.5228C81.7294 34.8301 82.0107 35.0619 82.344 35.2181C82.6773 35.3744 83.0653 35.4525 83.5081 35.4525C83.8778 35.4525 84.1851 35.4213 84.4299 35.3588C84.6799 35.2963 84.8805 35.2207 85.0315 35.1322C85.1877 35.0385 85.3075 34.9499 85.3909 34.8666V32.851H83.2502V31.1791H87.7346ZM93.3752 37.2806C92.719 37.2806 92.1305 37.1765 91.6096 36.9681C91.0888 36.7546 90.6461 36.4603 90.2815 36.0853C89.9221 35.7103 89.6461 35.2754 89.4534 34.7806C89.2607 34.2806 89.1643 33.7494 89.1643 33.1869V32.8744C89.1643 32.2338 89.2555 31.6478 89.4377 31.1166C89.62 30.5853 89.8805 30.1244 90.219 29.7338C90.5627 29.3431 90.9794 29.0437 91.469 28.8353C91.9586 28.6218 92.5107 28.515 93.1252 28.515C93.7242 28.515 94.2555 28.614 94.719 28.8119C95.1825 29.0098 95.5706 29.2911 95.8831 29.6556C96.2008 30.0202 96.4403 30.4577 96.6018 30.9681C96.7633 31.4733 96.844 32.0358 96.844 32.6556V33.5931H90.1252V32.0931H94.6331V31.9213C94.6331 31.6088 94.5758 31.3301 94.4612 31.0853C94.3518 30.8353 94.1851 30.6374 93.9612 30.4916C93.7372 30.3457 93.4508 30.2728 93.1018 30.2728C92.8049 30.2728 92.5497 30.3379 92.3362 30.4681C92.1226 30.5983 91.9482 30.7806 91.8127 31.015C91.6825 31.2494 91.5836 31.5254 91.5159 31.8431C91.4534 32.1556 91.4221 32.4994 91.4221 32.8744V33.1869C91.4221 33.5254 91.469 33.8379 91.5627 34.1244C91.6617 34.4108 91.7997 34.6582 91.9768 34.8666C92.1591 35.0749 92.3778 35.2364 92.6331 35.351C92.8935 35.4655 93.1877 35.5228 93.5159 35.5228C93.9221 35.5228 94.2997 35.4447 94.6487 35.2885C95.0028 35.127 95.3075 34.8848 95.5627 34.5619L96.6565 35.7494C96.4794 36.0046 96.2372 36.2494 95.9299 36.4838C95.6278 36.7181 95.2633 36.9108 94.8362 37.0619C94.4091 37.2077 93.9221 37.2806 93.3752 37.2806ZM100.328 30.476V37.1244H98.0784V28.6713H100.188L100.328 30.476ZM100 32.601H99.3909C99.3909 31.976 99.4716 31.4135 99.6331 30.9135C99.7945 30.4082 100.021 29.9786 100.313 29.6244C100.604 29.265 100.951 28.9916 101.352 28.8041C101.758 28.6114 102.211 28.515 102.711 28.515C103.107 28.515 103.469 28.5723 103.797 28.6869C104.125 28.8015 104.406 28.9838 104.641 29.2338C104.88 29.4838 105.063 29.8145 105.188 30.226C105.318 30.6374 105.383 31.14 105.383 31.7338V37.1244H103.117V31.726C103.117 31.351 103.065 31.0593 102.961 30.851C102.857 30.6426 102.703 30.4968 102.5 30.4135C102.302 30.3249 102.058 30.2806 101.766 30.2806C101.464 30.2806 101.201 30.3405 100.977 30.4603C100.758 30.5801 100.576 30.7468 100.43 30.9603C100.289 31.1687 100.183 31.4135 100.11 31.6947C100.037 31.976 100 32.278 100 32.601ZM110.985 37.2806C110.328 37.2806 109.74 37.1765 109.219 36.9681C108.698 36.7546 108.255 36.4603 107.891 36.0853C107.531 35.7103 107.255 35.2754 107.063 34.7806C106.87 34.2806 106.774 33.7494 106.774 33.1869V32.8744C106.774 32.2338 106.865 31.6478 107.047 31.1166C107.229 30.5853 107.49 30.1244 107.828 29.7338C108.172 29.3431 108.589 29.0437 109.078 28.8353C109.568 28.6218 110.12 28.515 110.735 28.515C111.334 28.515 111.865 28.614 112.328 28.8119C112.792 29.0098 113.18 29.2911 113.492 29.6556C113.81 30.0202 114.05 30.4577 114.211 30.9681C114.373 31.4733 114.453 32.0358 114.453 32.6556V33.5931H107.735V32.0931H112.242V31.9213C112.242 31.6088 112.185 31.3301 112.071 31.0853C111.961 30.8353 111.795 30.6374 111.571 30.4916C111.347 30.3457 111.06 30.2728 110.711 30.2728C110.414 30.2728 110.159 30.3379 109.946 30.4681C109.732 30.5983 109.558 30.7806 109.422 31.015C109.292 31.2494 109.193 31.5254 109.125 31.8431C109.063 32.1556 109.031 32.4994 109.031 32.8744V33.1869C109.031 33.5254 109.078 33.8379 109.172 34.1244C109.271 34.4108 109.409 34.6582 109.586 34.8666C109.768 35.0749 109.987 35.2364 110.242 35.351C110.503 35.4655 110.797 35.5228 111.125 35.5228C111.531 35.5228 111.909 35.4447 112.258 35.2885C112.612 35.127 112.917 34.8848 113.172 34.5619L114.266 35.7494C114.089 36.0046 113.847 36.2494 113.539 36.4838C113.237 36.7181 112.873 36.9108 112.446 37.0619C112.018 37.2077 111.531 37.2806 110.985 37.2806ZM117.985 30.515V37.1244H115.735V28.6713H117.852L117.985 30.515ZM120.531 28.6166L120.492 30.7025C120.383 30.6869 120.25 30.6739 120.094 30.6635C119.943 30.6478 119.805 30.64 119.68 30.64C119.362 30.64 119.086 30.6817 118.852 30.765C118.623 30.8431 118.43 30.9603 118.274 31.1166C118.123 31.2728 118.008 31.4629 117.93 31.6869C117.857 31.9108 117.815 32.1661 117.805 32.4525L117.352 32.3119C117.352 31.765 117.406 31.2624 117.516 30.8041C117.625 30.3405 117.784 29.9369 117.992 29.5931C118.206 29.2494 118.466 28.9838 118.774 28.7963C119.081 28.6088 119.433 28.515 119.828 28.515C119.953 28.515 120.081 28.5254 120.211 28.5463C120.341 28.5619 120.448 28.5853 120.531 28.6166ZM125.891 35.2181V31.4525C125.891 31.1817 125.847 30.9499 125.758 30.7572C125.67 30.5593 125.531 30.4056 125.344 30.2963C125.162 30.1869 124.925 30.1322 124.633 30.1322C124.383 30.1322 124.167 30.1765 123.985 30.265C123.802 30.3483 123.662 30.4707 123.563 30.6322C123.464 30.7885 123.414 30.9733 123.414 31.1869H121.164C121.164 30.8275 121.248 30.4864 121.414 30.1635C121.581 29.8405 121.823 29.5567 122.141 29.3119C122.459 29.0619 122.836 28.8666 123.274 28.726C123.716 28.5853 124.211 28.515 124.758 28.515C125.414 28.515 125.998 28.6244 126.508 28.8431C127.018 29.0619 127.42 29.39 127.711 29.8275C128.008 30.265 128.156 30.8119 128.156 31.4681V35.0853C128.156 35.5489 128.185 35.9291 128.242 36.226C128.3 36.5176 128.383 36.7728 128.492 36.9916V37.1244H126.219C126.11 36.8952 126.026 36.6088 125.969 36.265C125.917 35.9161 125.891 35.5671 125.891 35.2181ZM126.188 31.976L126.203 33.2494H124.946C124.649 33.2494 124.391 33.2832 124.172 33.351C123.953 33.4187 123.774 33.515 123.633 33.64C123.492 33.7598 123.388 33.9004 123.321 34.0619C123.258 34.2233 123.227 34.4004 123.227 34.5931C123.227 34.7858 123.271 34.9603 123.36 35.1166C123.448 35.2676 123.576 35.3874 123.742 35.476C123.909 35.5593 124.104 35.601 124.328 35.601C124.667 35.601 124.961 35.5332 125.211 35.3978C125.461 35.2624 125.654 35.0957 125.789 34.8978C125.93 34.6999 126.003 34.5124 126.008 34.3353L126.602 35.2885C126.518 35.502 126.404 35.7233 126.258 35.9525C126.117 36.1817 125.938 36.3978 125.719 36.601C125.5 36.7989 125.237 36.9629 124.93 37.0931C124.623 37.2181 124.258 37.2806 123.836 37.2806C123.3 37.2806 122.813 37.1739 122.375 36.9603C121.943 36.7416 121.599 36.4421 121.344 36.0619C121.094 35.6765 120.969 35.239 120.969 34.7494C120.969 34.3067 121.052 33.9135 121.219 33.5697C121.386 33.226 121.63 32.9369 121.953 32.7025C122.281 32.4629 122.69 32.2832 123.18 32.1635C123.67 32.0385 124.237 31.976 124.883 31.976H126.188ZM132.266 25.1244V37.1244H130.008V25.1244H132.266ZM142.875 27.6947L139.781 37.1244H137.289L141.516 25.7494H143.102L142.875 27.6947ZM145.446 37.1244L142.344 27.6947L142.094 25.7494H143.696L147.946 37.1244H145.446ZM145.305 32.89V34.726H139.297V32.89H145.305ZM151.727 37.1244H149.461V27.9213C149.461 27.2806 149.586 26.7416 149.836 26.3041C150.091 25.8614 150.448 25.528 150.906 25.3041C151.37 25.0749 151.92 24.9603 152.555 24.9603C152.763 24.9603 152.964 24.976 153.156 25.0072C153.349 25.0332 153.537 25.0671 153.719 25.1088L153.696 26.8041C153.597 26.778 153.492 26.7598 153.383 26.7494C153.274 26.739 153.146 26.7338 153 26.7338C152.729 26.7338 152.498 26.7806 152.305 26.8744C152.117 26.9629 151.974 27.0957 151.875 27.2728C151.776 27.4499 151.727 27.6661 151.727 27.9213V37.1244ZM153.414 28.6713V30.265H148.203V28.6713H153.414ZM157.461 37.1244H155.196V27.9213C155.196 27.2806 155.321 26.7416 155.571 26.3041C155.826 25.8614 156.183 25.528 156.641 25.3041C157.104 25.0749 157.654 24.9603 158.289 24.9603C158.498 24.9603 158.698 24.976 158.891 25.0072C159.084 25.0332 159.271 25.0671 159.453 25.1088L159.43 26.8041C159.331 26.778 159.227 26.7598 159.117 26.7494C159.008 26.739 158.88 26.7338 158.735 26.7338C158.464 26.7338 158.232 26.7806 158.039 26.8744C157.852 26.9629 157.709 27.0957 157.61 27.2728C157.511 27.4499 157.461 27.6661 157.461 27.9213V37.1244ZM159.149 28.6713V30.265H153.938V28.6713H159.149ZM164.891 35.2181V31.4525C164.891 31.1817 164.847 30.9499 164.758 30.7572C164.67 30.5593 164.531 30.4056 164.344 30.2963C164.162 30.1869 163.925 30.1322 163.633 30.1322C163.383 30.1322 163.167 30.1765 162.985 30.265C162.802 30.3483 162.662 30.4707 162.563 30.6322C162.464 30.7885 162.414 30.9733 162.414 31.1869H160.164C160.164 30.8275 160.248 30.4864 160.414 30.1635C160.581 29.8405 160.823 29.5567 161.141 29.3119C161.459 29.0619 161.836 28.8666 162.274 28.726C162.716 28.5853 163.211 28.515 163.758 28.515C164.414 28.515 164.998 28.6244 165.508 28.8431C166.018 29.0619 166.42 29.39 166.711 29.8275C167.008 30.265 167.156 30.8119 167.156 31.4681V35.0853C167.156 35.5489 167.185 35.9291 167.242 36.226C167.3 36.5176 167.383 36.7728 167.492 36.9916V37.1244H165.219C165.11 36.8952 165.026 36.6088 164.969 36.265C164.917 35.9161 164.891 35.5671 164.891 35.2181ZM165.188 31.976L165.203 33.2494H163.946C163.649 33.2494 163.391 33.2832 163.172 33.351C162.953 33.4187 162.774 33.515 162.633 33.64C162.492 33.7598 162.388 33.9004 162.321 34.0619C162.258 34.2233 162.227 34.4004 162.227 34.5931C162.227 34.7858 162.271 34.9603 162.36 35.1166C162.448 35.2676 162.576 35.3874 162.742 35.476C162.909 35.5593 163.104 35.601 163.328 35.601C163.667 35.601 163.961 35.5332 164.211 35.3978C164.461 35.2624 164.654 35.0957 164.789 34.8978C164.93 34.6999 165.003 34.5124 165.008 34.3353L165.602 35.2885C165.518 35.502 165.404 35.7233 165.258 35.9525C165.117 36.1817 164.938 36.3978 164.719 36.601C164.5 36.7989 164.237 36.9629 163.93 37.0931C163.623 37.2181 163.258 37.2806 162.836 37.2806C162.3 37.2806 161.813 37.1739 161.375 36.9603C160.943 36.7416 160.599 36.4421 160.344 36.0619C160.094 35.6765 159.969 35.239 159.969 34.7494C159.969 34.3067 160.052 33.9135 160.219 33.5697C160.386 33.226 160.63 32.9369 160.953 32.7025C161.281 32.4629 161.69 32.2832 162.18 32.1635C162.67 32.0385 163.237 31.976 163.883 31.976H165.188ZM171.266 28.6713V37.1244H169.008V28.6713H171.266ZM168.867 26.4681C168.867 26.14 168.982 25.8692 169.211 25.6556C169.44 25.4421 169.748 25.3353 170.133 25.3353C170.513 25.3353 170.818 25.4421 171.047 25.6556C171.281 25.8692 171.399 26.14 171.399 26.4681C171.399 26.7963 171.281 27.0671 171.047 27.2806C170.818 27.4942 170.513 27.601 170.133 27.601C169.748 27.601 169.44 27.4942 169.211 27.2806C168.982 27.0671 168.867 26.7963 168.867 26.4681ZM175.375 30.515V37.1244H173.125V28.6713H175.242L175.375 30.515ZM177.922 28.6166L177.883 30.7025C177.774 30.6869 177.641 30.6739 177.485 30.6635C177.334 30.6478 177.196 30.64 177.071 30.64C176.753 30.64 176.477 30.6817 176.242 30.765C176.013 30.8431 175.821 30.9603 175.664 31.1166C175.513 31.2728 175.399 31.4629 175.321 31.6869C175.248 31.9108 175.206 32.1661 175.196 32.4525L174.742 32.3119C174.742 31.765 174.797 31.2624 174.906 30.8041C175.016 30.3405 175.175 29.9369 175.383 29.5931C175.597 29.2494 175.857 28.9838 176.164 28.7963C176.472 28.6088 176.823 28.515 177.219 28.515C177.344 28.515 177.472 28.5254 177.602 28.5463C177.732 28.5619 177.839 28.5853 177.922 28.6166ZM187.539 33.0697H184.641V31.2416H187.539C187.987 31.2416 188.352 31.1687 188.633 31.0228C188.914 30.8718 189.12 30.6635 189.25 30.3978C189.38 30.1322 189.446 29.8327 189.446 29.4994C189.446 29.1608 189.38 28.8457 189.25 28.5541C189.12 28.2624 188.914 28.028 188.633 27.851C188.352 27.6739 187.987 27.5853 187.539 27.5853H185.453V37.1244H183.11V25.7494H187.539C188.43 25.7494 189.193 25.9108 189.828 26.2338C190.469 26.5515 190.959 26.9916 191.297 27.5541C191.636 28.1166 191.805 28.7598 191.805 29.4838C191.805 30.2181 191.636 30.8536 191.297 31.39C190.959 31.9265 190.469 32.3405 189.828 32.6322C189.193 32.9239 188.43 33.0697 187.539 33.0697ZM192.813 32.9838V32.8197C192.813 32.1999 192.901 31.6296 193.078 31.1088C193.255 30.5827 193.513 30.127 193.852 29.7416C194.19 29.3562 194.607 29.0567 195.102 28.8431C195.597 28.6244 196.164 28.515 196.805 28.515C197.446 28.515 198.016 28.6244 198.516 28.8431C199.016 29.0567 199.435 29.3562 199.774 29.7416C200.117 30.127 200.378 30.5827 200.555 31.1088C200.732 31.6296 200.821 32.1999 200.821 32.8197V32.9838C200.821 33.5983 200.732 34.1687 200.555 34.6947C200.378 35.2155 200.117 35.6713 199.774 36.0619C199.435 36.4473 199.018 36.7468 198.524 36.9603C198.029 37.1739 197.461 37.2806 196.821 37.2806C196.18 37.2806 195.61 37.1739 195.11 36.9603C194.615 36.7468 194.196 36.4473 193.852 36.0619C193.513 35.6713 193.255 35.2155 193.078 34.6947C192.901 34.1687 192.813 33.5983 192.813 32.9838ZM195.063 32.8197V32.9838C195.063 33.3379 195.094 33.6687 195.156 33.976C195.219 34.2832 195.318 34.5541 195.453 34.7885C195.594 35.0176 195.776 35.1973 196 35.3275C196.224 35.4577 196.498 35.5228 196.821 35.5228C197.133 35.5228 197.401 35.4577 197.625 35.3275C197.849 35.1973 198.029 35.0176 198.164 34.7885C198.3 34.5541 198.399 34.2832 198.461 33.976C198.529 33.6687 198.563 33.3379 198.563 32.9838V32.8197C198.563 32.476 198.529 32.153 198.461 31.851C198.399 31.5437 198.297 31.2728 198.156 31.0385C198.021 30.7989 197.841 30.6114 197.617 30.476C197.393 30.3405 197.123 30.2728 196.805 30.2728C196.487 30.2728 196.216 30.3405 195.992 30.476C195.774 30.6114 195.594 30.7989 195.453 31.0385C195.318 31.2728 195.219 31.5437 195.156 31.851C195.094 32.153 195.063 32.476 195.063 32.8197ZM204.453 30.515V37.1244H202.203V28.6713H204.321L204.453 30.515ZM207 28.6166L206.961 30.7025C206.852 30.6869 206.719 30.6739 206.563 30.6635C206.412 30.6478 206.274 30.64 206.149 30.64C205.831 30.64 205.555 30.6817 205.321 30.765C205.091 30.8431 204.899 30.9603 204.742 31.1166C204.591 31.2728 204.477 31.4629 204.399 31.6869C204.326 31.9108 204.284 32.1661 204.274 32.4525L203.821 32.3119C203.821 31.765 203.875 31.2624 203.985 30.8041C204.094 30.3405 204.253 29.9369 204.461 29.5931C204.675 29.2494 204.935 28.9838 205.242 28.7963C205.55 28.6088 205.901 28.515 206.297 28.515C206.422 28.515 206.55 28.5254 206.68 28.5463C206.81 28.5619 206.917 28.5853 207 28.6166ZM212.594 28.6713V30.265H207.672V28.6713H212.594ZM208.891 26.5853H211.141V34.5775C211.141 34.8223 211.172 35.0098 211.235 35.14C211.302 35.2702 211.401 35.3614 211.531 35.4135C211.662 35.4603 211.826 35.4838 212.024 35.4838C212.164 35.4838 212.289 35.4786 212.399 35.4681C212.513 35.4525 212.61 35.4369 212.688 35.4213L212.696 37.0775C212.503 37.14 212.295 37.1895 212.071 37.226C211.847 37.2624 211.599 37.2806 211.328 37.2806C210.834 37.2806 210.401 37.1999 210.031 37.0385C209.667 36.8718 209.386 36.6062 209.188 36.2416C208.99 35.877 208.891 35.3978 208.891 34.8041V26.5853ZM218.438 35.2181V31.4525C218.438 31.1817 218.393 30.9499 218.305 30.7572C218.216 30.5593 218.078 30.4056 217.891 30.2963C217.709 30.1869 217.472 30.1322 217.18 30.1322C216.93 30.1322 216.714 30.1765 216.531 30.265C216.349 30.3483 216.209 30.4707 216.11 30.6322C216.011 30.7885 215.961 30.9733 215.961 31.1869H213.711C213.711 30.8275 213.795 30.4864 213.961 30.1635C214.128 29.8405 214.37 29.5567 214.688 29.3119C215.005 29.0619 215.383 28.8666 215.821 28.726C216.263 28.5853 216.758 28.515 217.305 28.515C217.961 28.515 218.545 28.6244 219.055 28.8431C219.565 29.0619 219.966 29.39 220.258 29.8275C220.555 30.265 220.703 30.8119 220.703 31.4681V35.0853C220.703 35.5489 220.732 35.9291 220.789 36.226C220.847 36.5176 220.93 36.7728 221.039 36.9916V37.1244H218.766C218.656 36.8952 218.573 36.6088 218.516 36.265C218.464 35.9161 218.438 35.5671 218.438 35.2181ZM218.735 31.976L218.75 33.2494H217.492C217.196 33.2494 216.938 33.2832 216.719 33.351C216.5 33.4187 216.321 33.515 216.18 33.64C216.039 33.7598 215.935 33.9004 215.867 34.0619C215.805 34.2233 215.774 34.4004 215.774 34.5931C215.774 34.7858 215.818 34.9603 215.906 35.1166C215.995 35.2676 216.123 35.3874 216.289 35.476C216.456 35.5593 216.651 35.601 216.875 35.601C217.214 35.601 217.508 35.5332 217.758 35.3978C218.008 35.2624 218.201 35.0957 218.336 34.8978C218.477 34.6999 218.55 34.5124 218.555 34.3353L219.149 35.2885C219.065 35.502 218.951 35.7233 218.805 35.9525C218.664 36.1817 218.485 36.3978 218.266 36.601C218.047 36.7989 217.784 36.9629 217.477 37.0931C217.17 37.2181 216.805 37.2806 216.383 37.2806C215.847 37.2806 215.36 37.1739 214.922 36.9603C214.49 36.7416 214.146 36.4421 213.891 36.0619C213.641 35.6765 213.516 35.239 213.516 34.7494C213.516 34.3067 213.599 33.9135 213.766 33.5697C213.933 33.226 214.177 32.9369 214.5 32.7025C214.828 32.4629 215.237 32.2832 215.727 32.1635C216.216 32.0385 216.784 31.976 217.43 31.976H218.735ZM224.813 25.1244V37.1244H222.555V25.1244H224.813Z" fill="white"/>
<path d="M82.1018 62.1244H79.7268L79.7424 60.8978H82.1018C82.9143 60.8978 83.5914 60.7286 84.1331 60.39C84.6747 60.0463 85.081 59.5671 85.3518 58.9525C85.6278 58.3327 85.7659 57.6088 85.7659 56.7806V56.0853C85.7659 55.4343 85.6877 54.8562 85.5315 54.351C85.3752 53.8405 85.1461 53.4108 84.844 53.0619C84.5419 52.7077 84.1721 52.4395 83.7346 52.2572C83.3023 52.0749 82.8049 51.9838 82.2424 51.9838H79.6799V50.7494H82.2424C82.9872 50.7494 83.6669 50.8744 84.2815 51.1244C84.8961 51.3692 85.4247 51.726 85.8674 52.1947C86.3153 52.6582 86.6591 53.2207 86.8987 53.8822C87.1383 54.5385 87.2581 55.278 87.2581 56.101V56.7806C87.2581 57.6036 87.1383 58.3457 86.8987 59.0072C86.6591 59.6635 86.3127 60.2233 85.8596 60.6869C85.4117 61.1504 84.87 61.5072 84.2346 61.7572C83.6044 62.002 82.8935 62.1244 82.1018 62.1244ZM80.5315 50.7494V62.1244H79.0237V50.7494H80.5315ZM92.8127 62.2806C92.2242 62.2806 91.6903 62.1817 91.2112 61.9838C90.7372 61.7806 90.3284 61.4968 89.9846 61.1322C89.6461 60.7676 89.3857 60.3353 89.2034 59.8353C89.0211 59.3353 88.9299 58.7885 88.9299 58.1947V57.8666C88.9299 57.1791 89.0315 56.5671 89.2346 56.0306C89.4377 55.489 89.7138 55.0306 90.0627 54.6556C90.4117 54.2806 90.8075 53.9968 91.2502 53.8041C91.693 53.6114 92.1513 53.515 92.6252 53.515C93.2294 53.515 93.7502 53.6192 94.1877 53.8275C94.6305 54.0358 94.9924 54.3275 95.2737 54.7025C95.5549 55.0723 95.7633 55.5098 95.8987 56.015C96.0341 56.515 96.1018 57.0619 96.1018 57.6556V58.3041H89.7893V57.1244H94.6565V57.015C94.6357 56.64 94.5575 56.2754 94.4221 55.9213C94.2919 55.5671 94.0836 55.2754 93.7971 55.0463C93.5107 54.8171 93.12 54.7025 92.6252 54.7025C92.2971 54.7025 91.995 54.7728 91.719 54.9135C91.443 55.0489 91.206 55.252 91.0081 55.5228C90.8101 55.7937 90.6565 56.1244 90.5471 56.515C90.4377 56.9056 90.3831 57.3562 90.3831 57.8666V58.1947C90.3831 58.5957 90.4377 58.9733 90.5471 59.3275C90.6617 59.6765 90.8258 59.9838 91.0393 60.2494C91.2581 60.515 91.5211 60.7233 91.8284 60.8744C92.1409 61.0254 92.495 61.101 92.8909 61.101C93.4013 61.101 93.8336 60.9968 94.1877 60.7885C94.5419 60.5801 94.8518 60.3015 95.1174 59.9525L95.9924 60.6478C95.8101 60.9239 95.5784 61.1869 95.2971 61.4369C95.0159 61.6869 94.6695 61.89 94.2581 62.0463C93.8518 62.2025 93.37 62.2806 92.8127 62.2806ZM99.2346 55.2963V65.3744H97.7815V53.6713H99.1096L99.2346 55.2963ZM104.93 57.8275V57.9916C104.93 58.6062 104.857 59.1765 104.711 59.7025C104.565 60.2233 104.352 60.6765 104.071 61.0619C103.795 61.4473 103.453 61.7468 103.047 61.9603C102.641 62.1739 102.175 62.2806 101.649 62.2806C101.112 62.2806 100.638 62.1921 100.227 62.015C99.8153 61.8379 99.4664 61.5801 99.1799 61.2416C98.8935 60.903 98.6643 60.4968 98.4924 60.0228C98.3258 59.5489 98.2112 59.015 98.1487 58.4213V57.5463C98.2112 56.9213 98.3284 56.3614 98.5002 55.8666C98.6721 55.3718 98.8987 54.9499 99.1799 54.601C99.4664 54.2468 99.8127 53.9786 100.219 53.7963C100.625 53.6088 101.094 53.515 101.625 53.515C102.156 53.515 102.628 53.6192 103.039 53.8275C103.451 54.0306 103.797 54.3223 104.078 54.7025C104.36 55.0827 104.571 55.5385 104.711 56.0697C104.857 56.5957 104.93 57.1817 104.93 57.8275ZM103.477 57.9916V57.8275C103.477 57.4056 103.433 57.0098 103.344 56.64C103.255 56.265 103.117 55.9369 102.93 55.6556C102.748 55.3692 102.513 55.1452 102.227 54.9838C101.94 54.8171 101.599 54.7338 101.203 54.7338C100.839 54.7338 100.521 54.7963 100.25 54.9213C99.9846 55.0463 99.7581 55.2155 99.5706 55.4291C99.3831 55.6374 99.2294 55.877 99.1096 56.1478C98.995 56.4135 98.9091 56.6895 98.8518 56.976V58.9994C98.956 59.364 99.1018 59.7077 99.2893 60.0306C99.4768 60.3483 99.7268 60.6062 100.039 60.8041C100.352 60.9968 100.745 61.0931 101.219 61.0931C101.61 61.0931 101.946 61.0124 102.227 60.851C102.513 60.6843 102.748 60.4577 102.93 60.1713C103.117 59.8848 103.255 59.5567 103.344 59.1869C103.433 58.8119 103.477 58.4135 103.477 57.9916ZM111.758 60.6791V56.3275C111.758 55.9942 111.69 55.7051 111.555 55.4603C111.425 55.2103 111.227 55.0176 110.961 54.8822C110.696 54.7468 110.367 54.6791 109.977 54.6791C109.612 54.6791 109.292 54.7416 109.016 54.8666C108.745 54.9916 108.531 55.1556 108.375 55.3588C108.224 55.5619 108.149 55.7806 108.149 56.015H106.703C106.703 55.7129 106.781 55.4135 106.938 55.1166C107.094 54.8197 107.318 54.5515 107.61 54.3119C107.906 54.0671 108.261 53.8744 108.672 53.7338C109.089 53.5879 109.552 53.515 110.063 53.515C110.677 53.515 111.219 53.6192 111.688 53.8275C112.162 54.0358 112.531 54.351 112.797 54.7728C113.068 55.1895 113.203 55.7129 113.203 56.3431V60.2806C113.203 60.5619 113.227 60.8614 113.274 61.1791C113.326 61.4968 113.401 61.7702 113.5 61.9994V62.1244H111.992C111.92 61.9577 111.862 61.7364 111.821 61.4603C111.779 61.1791 111.758 60.9187 111.758 60.6791ZM112.008 56.9994L112.024 58.015H110.563C110.151 58.015 109.784 58.0489 109.461 58.1166C109.138 58.1791 108.867 58.2754 108.649 58.4056C108.43 58.5358 108.263 58.6999 108.149 58.8978C108.034 59.0905 107.977 59.3171 107.977 59.5775C107.977 59.8431 108.037 60.0853 108.156 60.3041C108.276 60.5228 108.456 60.6973 108.696 60.8275C108.94 60.9525 109.24 61.015 109.594 61.015C110.037 61.015 110.427 60.9213 110.766 60.7338C111.104 60.5463 111.373 60.3171 111.571 60.0463C111.774 59.7754 111.883 59.5124 111.899 59.2572L112.516 59.9525C112.479 60.1713 112.38 60.4135 112.219 60.6791C112.058 60.9447 111.841 61.1999 111.571 61.4447C111.305 61.6843 110.987 61.8848 110.617 62.0463C110.253 62.2025 109.841 62.2806 109.383 62.2806C108.81 62.2806 108.308 62.1687 107.875 61.9447C107.448 61.7207 107.115 61.4213 106.875 61.0463C106.641 60.6661 106.524 60.2416 106.524 59.7728C106.524 59.3197 106.612 58.9213 106.789 58.5775C106.966 58.2286 107.222 57.9395 107.555 57.7103C107.888 57.476 108.289 57.2989 108.758 57.1791C109.227 57.0593 109.75 56.9994 110.328 56.9994H112.008ZM116.922 54.9994V62.1244H115.477V53.6713H116.883L116.922 54.9994ZM119.563 53.6244L119.555 54.9681C119.435 54.9421 119.321 54.9265 119.211 54.9213C119.107 54.9108 118.987 54.9056 118.852 54.9056C118.518 54.9056 118.224 54.9577 117.969 55.0619C117.714 55.1661 117.498 55.3119 117.321 55.4994C117.143 55.6869 117.003 55.9108 116.899 56.1713C116.8 56.4265 116.735 56.7077 116.703 57.015L116.297 57.2494C116.297 56.739 116.347 56.2598 116.446 55.8119C116.55 55.364 116.709 54.9681 116.922 54.6244C117.136 54.2754 117.406 54.0046 117.735 53.8119C118.068 53.614 118.464 53.515 118.922 53.515C119.026 53.515 119.146 53.528 119.281 53.5541C119.417 53.5749 119.511 53.5983 119.563 53.6244ZM124.828 53.6713V54.7806H120.258V53.6713H124.828ZM121.805 51.6166H123.25V60.0306C123.25 60.3171 123.295 60.5332 123.383 60.6791C123.472 60.8249 123.586 60.9213 123.727 60.9681C123.867 61.015 124.018 61.0385 124.18 61.0385C124.3 61.0385 124.425 61.028 124.555 61.0072C124.69 60.9812 124.792 60.9603 124.86 60.9447L124.867 62.1244C124.753 62.1608 124.602 62.1947 124.414 62.226C124.232 62.2624 124.011 62.2806 123.75 62.2806C123.396 62.2806 123.071 62.2103 122.774 62.0697C122.477 61.9291 122.24 61.6947 122.063 61.3666C121.891 61.0332 121.805 60.5853 121.805 60.0228V51.6166ZM127.961 55.351V62.1244H126.508V53.6713H127.883L127.961 55.351ZM127.664 57.5775L126.992 57.5541C126.998 56.976 127.073 56.4421 127.219 55.9525C127.365 55.4577 127.581 55.028 127.867 54.6635C128.154 54.2989 128.511 54.0176 128.938 53.8197C129.365 53.6166 129.86 53.515 130.422 53.515C130.818 53.515 131.183 53.5723 131.516 53.6869C131.849 53.7963 132.138 53.9707 132.383 54.2103C132.628 54.4499 132.818 54.7572 132.953 55.1322C133.089 55.5072 133.156 55.9603 133.156 56.4916V62.1244H131.711V56.5619C131.711 56.1192 131.636 55.765 131.485 55.4994C131.339 55.2338 131.13 55.0411 130.86 54.9213C130.589 54.7963 130.271 54.7338 129.906 54.7338C129.479 54.7338 129.123 54.8093 128.836 54.9603C128.55 55.1114 128.321 55.3197 128.149 55.5853C127.977 55.851 127.852 56.1556 127.774 56.4994C127.701 56.8379 127.664 57.1973 127.664 57.5775ZM133.141 56.7806L132.172 57.0775C132.177 56.614 132.253 56.1687 132.399 55.7416C132.55 55.3145 132.766 54.9343 133.047 54.601C133.334 54.2676 133.685 54.0046 134.102 53.8119C134.518 53.614 134.995 53.515 135.531 53.515C135.985 53.515 136.386 53.5749 136.735 53.6947C137.089 53.8145 137.386 53.9994 137.625 54.2494C137.87 54.4942 138.055 54.8093 138.18 55.1947C138.305 55.5801 138.367 56.0385 138.367 56.5697V62.1244H136.914V56.5541C136.914 56.0801 136.839 55.7129 136.688 55.4525C136.542 55.1869 136.334 55.002 136.063 54.8978C135.797 54.7885 135.479 54.7338 135.11 54.7338C134.792 54.7338 134.511 54.7885 134.266 54.8978C134.021 55.0072 133.815 55.1582 133.649 55.351C133.482 55.5385 133.354 55.7546 133.266 55.9994C133.183 56.2442 133.141 56.5046 133.141 56.7806ZM144.063 62.2806C143.474 62.2806 142.94 62.1817 142.461 61.9838C141.987 61.7806 141.578 61.4968 141.235 61.1322C140.896 60.7676 140.636 60.3353 140.453 59.8353C140.271 59.3353 140.18 58.7885 140.18 58.1947V57.8666C140.18 57.1791 140.281 56.5671 140.485 56.0306C140.688 55.489 140.964 55.0306 141.313 54.6556C141.662 54.2806 142.058 53.9968 142.5 53.8041C142.943 53.6114 143.401 53.515 143.875 53.515C144.479 53.515 145 53.6192 145.438 53.8275C145.88 54.0358 146.242 54.3275 146.524 54.7025C146.805 55.0723 147.013 55.5098 147.149 56.015C147.284 56.515 147.352 57.0619 147.352 57.6556V58.3041H141.039V57.1244H145.906V57.015C145.886 56.64 145.808 56.2754 145.672 55.9213C145.542 55.5671 145.334 55.2754 145.047 55.0463C144.761 54.8171 144.37 54.7025 143.875 54.7025C143.547 54.7025 143.245 54.7728 142.969 54.9135C142.693 55.0489 142.456 55.252 142.258 55.5228C142.06 55.7937 141.906 56.1244 141.797 56.515C141.688 56.9056 141.633 57.3562 141.633 57.8666V58.1947C141.633 58.5957 141.688 58.9733 141.797 59.3275C141.912 59.6765 142.076 59.9838 142.289 60.2494C142.508 60.515 142.771 60.7233 143.078 60.8744C143.391 61.0254 143.745 61.101 144.141 61.101C144.651 61.101 145.084 60.9968 145.438 60.7885C145.792 60.5801 146.102 60.3015 146.367 59.9525L147.242 60.6478C147.06 60.9239 146.828 61.1869 146.547 61.4369C146.266 61.6869 145.92 61.89 145.508 62.0463C145.102 62.2025 144.62 62.2806 144.063 62.2806ZM150.485 55.476V62.1244H149.039V53.6713H150.406L150.485 55.476ZM150.141 57.5775L149.539 57.5541C149.545 56.976 149.63 56.4421 149.797 55.9525C149.964 55.4577 150.198 55.028 150.5 54.6635C150.802 54.2989 151.162 54.0176 151.578 53.8197C152 53.6166 152.466 53.515 152.977 53.515C153.393 53.515 153.768 53.5723 154.102 53.6869C154.435 53.7963 154.719 53.9733 154.953 54.2181C155.193 54.4629 155.375 54.7806 155.5 55.1713C155.625 55.5567 155.688 56.028 155.688 56.5853V62.1244H154.235V56.5697C154.235 56.127 154.17 55.7728 154.039 55.5072C153.909 55.2364 153.719 55.0411 153.469 54.9213C153.219 54.7963 152.912 54.7338 152.547 54.7338C152.188 54.7338 151.86 54.8093 151.563 54.9603C151.271 55.1114 151.018 55.3197 150.805 55.5853C150.597 55.851 150.433 56.1556 150.313 56.4994C150.198 56.8379 150.141 57.1973 150.141 57.5775ZM161.422 53.6713V54.7806H156.852V53.6713H161.422ZM158.399 51.6166H159.844V60.0306C159.844 60.3171 159.888 60.5332 159.977 60.6791C160.065 60.8249 160.18 60.9213 160.321 60.9681C160.461 61.015 160.612 61.0385 160.774 61.0385C160.893 61.0385 161.018 61.028 161.149 61.0072C161.284 60.9812 161.386 60.9603 161.453 60.9447L161.461 62.1244C161.347 62.1608 161.196 62.1947 161.008 62.226C160.826 62.2624 160.604 62.2806 160.344 62.2806C159.99 62.2806 159.664 62.2103 159.367 62.0697C159.071 61.9291 158.834 61.6947 158.656 61.3666C158.485 61.0332 158.399 60.5853 158.399 60.0228V51.6166Z" fill="white"/>
<defs>
<clipPath id="clip0_235_1161">
<rect width="99.3493" height="80.4785" fill="white"/>
</clipPath>
</defs>
</svg>
