<svg width="45" height="44" viewBox="0 0 45 44" fill="none" xmlns="http://www.w3.org/2000/svg">
<path d="M22.5 29.3333C21.0413 29.3333 19.6424 28.7539 18.6109 27.7224C17.5795 26.691 17 25.292 17 23.8333C17 21.78 18.1183 19.9833 19.75 19.0483L37.5517 8.745L27.4133 26.3083C26.4967 28.105 24.645 29.3333 22.5 29.3333ZM22.5 5.5C25.8183 5.5 28.9167 6.41667 31.6117 7.92L27.7617 10.1383C26.1667 9.515 24.3333 9.16667 22.5 9.16667C18.6102 9.16667 14.8796 10.7119 12.1291 13.4624C9.37857 16.213 7.83333 19.9435 7.83333 23.8333C7.83333 27.885 9.465 31.5517 12.1233 34.1917H12.1417C12.8567 34.9067 12.8567 36.0617 12.1417 36.7767C11.4267 37.4917 10.2533 37.4917 9.53833 36.795C7.83329 35.0949 6.48099 33.0746 5.55915 30.8502C4.6373 28.6258 4.16408 26.2412 4.16667 23.8333C4.16667 18.971 6.09821 14.3079 9.53638 10.8697C12.9745 7.43154 17.6377 5.5 22.5 5.5ZM40.8333 23.8333C40.8333 28.8933 38.78 33.4767 35.4617 36.795C34.7467 37.4917 33.5917 37.4917 32.8767 36.7767C32.7067 36.6071 32.5719 36.4056 32.4799 36.1838C32.3879 35.962 32.3405 35.7243 32.3405 35.4842C32.3405 35.2441 32.3879 35.0063 32.4799 34.7845C32.5719 34.5627 32.7067 34.3613 32.8767 34.1917C34.2401 32.8338 35.3212 31.2193 36.0575 29.4415C36.7938 27.6637 37.1708 25.7576 37.1667 23.8333C37.1667 22 36.8183 20.1667 36.1767 18.5167L38.395 14.6667C39.9167 17.4167 40.8333 20.4967 40.8333 23.8333Z" fill="#2A4878"/>
</svg>
