<svg width="87" height="87" viewBox="0 0 87 87" fill="none" xmlns="http://www.w3.org/2000/svg">
<path d="M87 43.5C87 67.5244 67.5244 87 43.5 87C19.4756 87 0 67.5244 0 43.5C0 19.4756 19.4756 0 43.5 0C67.5244 0 87 19.4756 87 43.5ZM6.525 43.5C6.525 63.9207 23.0793 80.475 43.5 80.475C63.9207 80.475 80.475 63.9207 80.475 43.5C80.475 23.0793 63.9207 6.525 43.5 6.525C23.0793 6.525 6.525 23.0793 6.525 43.5Z" fill="#C8D8E2"/>
<path d="M43.5 0C52.1035 1.02596e-07 60.5138 2.55123 67.6673 7.33107C74.8208 12.1109 80.3963 18.9047 83.6888 26.8533C86.9812 34.8019 87.8426 43.5483 86.1642 51.9864C84.4857 60.4246 80.3427 68.1756 74.2591 74.2591L69.6453 69.6453C74.8163 64.4742 78.3379 57.8859 79.7645 50.7135C81.1912 43.541 80.459 36.1066 77.6604 29.3503C74.8619 22.594 70.1227 16.8193 64.0422 12.7564C57.9617 8.69354 50.813 6.525 43.5 6.525V0Z" fill="#2A4878"/>
<path d="M28.0225 38.3633V48.3438H26.2109V40.4756L23.8115 41.2686V39.8057L27.8174 38.3633H28.0225ZM43.1504 43.1143V43.627C43.1504 44.3789 43.0501 45.0557 42.8496 45.6572C42.6491 46.2542 42.3643 46.7624 41.9951 47.1816C41.626 47.6009 41.1862 47.9222 40.6758 48.1455C40.1654 48.3688 39.598 48.4805 38.9736 48.4805C38.3584 48.4805 37.7933 48.3688 37.2783 48.1455C36.7679 47.9222 36.3258 47.6009 35.9521 47.1816C35.5785 46.7624 35.2891 46.2542 35.084 45.6572C34.8789 45.0557 34.7764 44.3789 34.7764 43.627V43.1143C34.7764 42.3577 34.8789 41.681 35.084 41.084C35.2891 40.487 35.5762 39.9788 35.9453 39.5596C36.3145 39.1357 36.7542 38.8122 37.2646 38.5889C37.7796 38.3656 38.3447 38.2539 38.96 38.2539C39.5843 38.2539 40.1517 38.3656 40.6621 38.5889C41.1725 38.8122 41.6123 39.1357 41.9814 39.5596C42.3551 39.9788 42.6423 40.487 42.8428 41.084C43.0479 41.681 43.1504 42.3577 43.1504 43.1143ZM41.25 43.627V43.1006C41.25 42.5583 41.1999 42.082 41.0996 41.6719C40.9993 41.2572 40.8512 40.9085 40.6553 40.626C40.4593 40.3434 40.2178 40.1315 39.9307 39.9902C39.6436 39.8444 39.32 39.7715 38.96 39.7715C38.5954 39.7715 38.2718 39.8444 37.9893 39.9902C37.7113 40.1315 37.4743 40.3434 37.2783 40.626C37.0824 40.9085 36.932 41.2572 36.8271 41.6719C36.7269 42.082 36.6768 42.5583 36.6768 43.1006V43.627C36.6768 44.1647 36.7269 44.641 36.8271 45.0557C36.932 45.4704 37.0824 45.8213 37.2783 46.1084C37.4788 46.391 37.7204 46.6051 38.0029 46.751C38.2855 46.8968 38.609 46.9697 38.9736 46.9697C39.3382 46.9697 39.6618 46.8968 39.9443 46.751C40.2269 46.6051 40.4639 46.391 40.6553 46.1084C40.8512 45.8213 40.9993 45.4704 41.0996 45.0557C41.1999 44.641 41.25 44.1647 41.25 43.627ZM46.623 38.3906V48.3438H44.7432V38.3906H46.623ZM50.6357 42.6904V44.1738H46.1309V42.6904H50.6357ZM51.1621 38.3906V39.874H46.1309V38.3906H51.1621ZM57.6699 42.5674H58.6885C59.0485 42.5674 59.3447 42.5059 59.5771 42.3828C59.8141 42.2552 59.9896 42.082 60.1035 41.8633C60.222 41.64 60.2812 41.3825 60.2812 41.0908C60.2812 40.8037 60.2288 40.5553 60.124 40.3457C60.0192 40.1315 59.8597 39.9674 59.6455 39.8535C59.4359 39.735 59.167 39.6758 58.8389 39.6758C58.5745 39.6758 58.3307 39.7282 58.1074 39.833C57.8887 39.9378 57.7132 40.0882 57.5811 40.2842C57.4535 40.4756 57.3896 40.7057 57.3896 40.9746H55.5781C55.5781 40.4368 55.7194 39.9652 56.002 39.5596C56.2891 39.1494 56.6764 38.8281 57.1641 38.5957C57.6517 38.3633 58.1963 38.2471 58.7979 38.2471C59.4541 38.2471 60.0283 38.3564 60.5205 38.5752C61.0173 38.7894 61.4023 39.1061 61.6758 39.5254C61.9538 39.9447 62.0928 40.4642 62.0928 41.084C62.0928 41.3802 62.0221 41.6764 61.8809 41.9727C61.7441 42.2643 61.5413 42.5286 61.2725 42.7656C61.0081 42.998 60.6823 43.1872 60.2949 43.333C59.9121 43.4743 59.4723 43.5449 58.9756 43.5449H57.6699V42.5674ZM57.6699 43.9619V42.998H58.9756C59.5361 42.998 60.0215 43.0641 60.4316 43.1963C60.8464 43.3239 61.1882 43.5062 61.457 43.7432C61.7259 43.9756 61.9242 44.2467 62.0518 44.5566C62.1839 44.8665 62.25 45.1992 62.25 45.5547C62.25 46.0195 62.1634 46.4342 61.9902 46.7988C61.8171 47.1589 61.5732 47.4642 61.2588 47.7148C60.9489 47.9655 60.5843 48.1569 60.165 48.2891C59.7458 48.4167 59.2923 48.4805 58.8047 48.4805C58.3809 48.4805 57.9684 48.4235 57.5674 48.3096C57.1709 48.1911 56.8132 48.0156 56.4941 47.7832C56.1751 47.5462 55.9222 47.25 55.7354 46.8945C55.5485 46.5345 55.4551 46.1175 55.4551 45.6436H57.2666C57.2666 45.917 57.3327 46.1608 57.4648 46.375C57.6016 46.5892 57.7884 46.7578 58.0254 46.8809C58.2669 46.9993 58.5381 47.0586 58.8389 47.0586C59.1715 47.0586 59.4564 46.9993 59.6934 46.8809C59.9349 46.7578 60.1195 46.5846 60.2471 46.3613C60.3747 46.1335 60.4385 45.8623 60.4385 45.5479C60.4385 45.1742 60.3678 44.8711 60.2266 44.6387C60.0853 44.4062 59.8825 44.2354 59.6182 44.126C59.3584 44.0166 59.0485 43.9619 58.6885 43.9619H57.6699Z" fill="#444444"/>
</svg>
